<svg width="62" height="56" viewBox="0 0 62 56" fill="none" xmlns="http://www.w3.org/2000/svg">
<g clip-path="url(#clip0_175_288)">
<path fill-rule="evenodd" clip-rule="evenodd" d="M43.2332 51.6448C42.6892 51.9896 41.9742 51.7965 41.6522 51.2389C41.3301 50.681 41.5229 49.97 42.0657 49.6229C47.3625 46.2353 51.2445 41.0107 52.9495 34.9306C54.7597 28.4755 53.9724 21.5681 50.7561 15.6857C47.5395 9.80341 42.1493 5.41301 35.7379 3.45341C29.3263 1.4938 22.4026 2.12052 16.4472 5.19955C10.4918 8.27858 5.97744 13.5655 3.86953 19.9298C1.7616 26.2941 2.22743 33.2305 5.16738 39.2558C8.10733 45.2811 13.288 49.9169 19.6017 52.172C25.5483 54.296 32.0554 54.1492 37.882 51.7859C38.4789 51.5437 39.1705 51.7975 39.4396 52.3827C39.7085 52.968 39.4526 53.6629 38.8567 53.9073C32.4757 56.5237 25.3375 56.6976 18.8171 54.3685C11.9298 51.9085 6.27828 46.8513 3.07116 40.2785C-0.135946 33.7057 -0.6441 26.1391 1.65537 19.1964C3.95483 12.2538 8.8794 6.48646 15.376 3.12765C21.8726 -0.231185 29.4255 -0.914855 36.4196 1.22283C43.4137 3.36051 49.2937 8.14985 52.8026 14.5667C56.3112 20.9836 57.1701 28.5185 55.1954 35.5605C53.3257 42.2271 49.0569 47.9509 43.2332 51.6448ZM46.9861 15.7221C47.3143 16.2313 47.1324 16.9038 46.6076 17.2067C46.083 17.5096 45.4148 17.3279 45.0838 16.8204C44.4274 15.8133 43.6861 14.8722 42.8712 14.0058L41.4561 15.4209C41.087 15.79 40.4885 15.79 40.1192 15.4209C39.7505 15.0518 39.7505 14.4534 40.1192 14.0843L41.513 12.6906C39.2489 10.6943 36.5463 9.21059 33.5865 8.38059C32.0993 7.96354 30.5817 7.72121 29.0626 7.6503V9.6878C29.0626 10.2098 28.6394 10.6329 28.1174 10.6329C27.5955 10.6329 27.1723 10.2098 27.1723 9.6878V7.65037C24.127 7.79273 21.1246 8.62203 18.4008 10.1114C16.7168 11.0322 15.1877 12.1789 13.849 13.5079C13.9227 13.5493 13.992 13.6014 14.0547 13.6641L15.8928 15.502C16.262 15.8711 16.262 16.4695 15.8928 16.8387C15.5236 17.2077 14.9251 17.2077 14.5563 16.8387L12.7182 15.0007C12.6749 14.9574 12.6366 14.9109 12.6034 14.862C10.8708 16.9267 9.55126 19.3357 8.74859 21.9619C8.26231 23.5529 7.97787 25.184 7.89198 26.8186H9.92336C10.4453 26.8186 10.8685 27.2418 10.8685 27.7638C10.8685 28.2857 10.4453 28.7089 9.92336 28.7089H7.88097C8.0007 31.6372 8.75552 34.532 10.1264 37.1836C10.8949 38.6701 11.8377 40.0427 12.9265 41.2775L14.5563 39.6478C14.9255 39.2787 15.5236 39.2787 15.8928 39.6478C16.262 40.0169 16.262 40.6154 15.8928 40.9845L14.2419 42.6354C16.3698 44.6368 18.9253 46.1729 21.7497 47.1083C23.5182 47.6941 25.343 48.028 27.1723 48.1135V45.8397C27.1723 45.3178 27.5955 44.8946 28.1174 44.8946C28.6394 44.8946 29.0626 45.3178 29.0626 45.8397V48.1135C31.7936 47.9859 34.496 47.3056 36.9992 46.0843C38.4902 45.3568 39.8734 44.4553 41.1248 43.4069L40.1196 42.402C39.7505 42.0329 39.7505 41.4344 40.1196 41.0653C40.4889 40.6962 41.0875 40.6962 41.4561 41.0653L42.5165 42.1255C44.5805 40.0391 46.1856 37.5094 47.1912 34.6945C47.885 32.752 48.2718 30.7337 48.3545 28.7089H46.0752C45.5533 28.7089 45.1301 28.2857 45.1301 27.7638C45.1301 27.2418 45.5533 26.8186 46.0752 26.8186H48.3434C48.229 24.6438 47.764 22.4868 46.9521 20.4339C46.7293 19.8706 46.9675 19.2202 47.518 18.9673C48.0683 18.7143 48.7224 18.9546 48.948 19.5167C50.9872 24.594 51.1058 30.2561 49.2571 35.4325C47.2848 40.9538 43.2306 45.4846 37.9611 48.0556C32.6919 50.6269 26.6258 51.0343 21.0599 49.1907C15.4941 47.3472 10.8705 43.3993 8.17779 38.1911C5.48504 32.9829 4.93695 26.9278 6.65072 21.3207C8.36449 15.7136 12.204 10.9996 17.3484 8.18669C22.4927 5.37377 28.5333 4.68527 34.1787 6.26839C39.4713 7.75256 44.0224 11.1228 46.9861 15.7221ZM27.1723 13.941C27.1723 13.419 27.5955 12.9958 28.1174 12.9958C28.6394 12.9958 29.0626 13.419 29.0626 13.941V23.7341C30.7312 24.1127 32.0273 25.4725 32.3122 27.1747C32.3314 27.1735 32.351 27.1731 32.3706 27.1731H37.3326C37.8546 27.1731 38.2778 27.5962 38.2778 28.1182C38.2778 28.6402 37.8546 29.0633 37.3326 29.0633H32.3706C32.3153 29.0633 32.2612 29.0586 32.2083 29.0494C31.701 30.8308 30.0616 32.1351 28.1174 32.1351C25.7685 32.1351 23.8643 30.2308 23.8643 27.8819C23.8643 25.8579 25.2782 24.1639 27.1723 23.7341V13.941ZM28.1174 30.4811C29.5529 30.4811 30.7166 29.3174 30.7166 27.8819C30.7166 26.4465 29.5529 25.2828 28.1174 25.2828C26.682 25.2828 25.5183 26.4465 25.5183 27.8819C25.5183 29.3174 26.682 30.4811 28.1174 30.4811Z" fill="#303030"/>
<path d="M50.6836 56.0001C56.7518 56.0001 61.671 51.0809 61.671 45.0127C61.671 38.9446 56.7518 34.0254 50.6836 34.0254C44.6155 34.0254 39.6963 38.9446 39.6963 45.0127C39.6963 51.0809 44.6155 56.0001 50.6836 56.0001Z" fill="white"/>
<path d="M61.0271 45.0126C61.3828 45.0126 61.6729 44.7241 61.6521 44.369C61.4976 41.7334 60.3977 39.2328 58.5426 37.334C56.537 35.2814 53.8079 34.0948 50.9386 34.0284C48.0696 33.9617 45.2883 35.0203 43.1896 36.9777C41.0909 38.9351 39.8414 41.6359 39.7082 44.5027C39.5749 47.3694 40.5687 50.1746 42.477 52.3181C44.385 54.4617 47.0562 55.7736 49.9191 55.9733C52.7819 56.1732 55.6093 55.2448 57.7966 53.3869C59.82 51.6684 61.1469 49.2807 61.5453 46.6704C61.599 46.3191 61.3367 46.0048 60.9827 45.9717C60.6285 45.9389 60.3171 46.1997 60.2606 46.5509C59.8953 48.8258 58.73 50.9047 56.963 52.4053C55.0321 54.0456 52.5359 54.8651 50.0086 54.6888C47.4813 54.5125 45.1231 53.3543 43.4386 51.4618C41.7542 49.5697 40.8768 47.0931 40.9945 44.5625C41.1119 42.0316 42.2152 39.6473 44.0679 37.9193C45.9206 36.1913 48.3761 35.2568 50.9089 35.3156C53.4416 35.3742 55.851 36.4217 57.6215 38.234C59.2418 39.8921 60.2094 42.0701 60.362 44.3692C60.3856 44.7241 60.6715 45.0126 61.0271 45.0126Z" fill="#E4262A"/>
<mask id="mask0_175_288" style="mask-type:alpha" maskUnits="userSpaceOnUse" x="44" y="40" width="13" height="10">
<path fill-rule="evenodd" clip-rule="evenodd" d="M56.2687 40.8958C55.6142 40.2411 54.553 40.2411 53.8985 40.8958L49.6529 45.1412L47.5195 43.0078C46.8649 42.3533 45.8038 42.3533 45.1493 43.0078C44.4945 43.6623 44.4945 44.7235 45.1493 45.378L48.4639 48.6926C49.1057 49.3344 50.1385 49.3469 50.7953 48.7302C50.8329 48.6987 50.8693 48.6654 50.9045 48.6302L56.2687 43.266C56.9232 42.6115 56.9232 41.5504 56.2687 40.8958Z" fill="white"/>
</mask>
<g mask="url(#mask0_175_288)">
<path d="M53.8983 40.8961L53.2298 40.2277L53.8983 40.8961ZM56.2685 40.8961L55.6 41.5643L56.2685 40.8961ZM49.6527 45.1415L48.9845 45.8097L49.6527 46.4782L50.3209 45.8097L49.6527 45.1415ZM45.149 43.008L44.4806 42.3396L45.149 43.008ZM45.149 45.3782L45.8173 44.7098L45.149 45.3782ZM48.4637 48.6929L49.1319 48.0246L48.4637 48.6929ZM50.7951 48.7304L50.1876 48.0065L50.1673 48.0232L50.1482 48.0412L50.7951 48.7304ZM50.9043 48.6305L51.5725 49.2987L50.9043 48.6305ZM56.2685 43.2663L55.6 42.5979L56.2685 43.2663ZM54.5665 41.5643C54.8519 41.2789 55.3146 41.2789 55.6 41.5643L56.9367 40.2277C55.9131 39.2041 54.2534 39.2041 53.2298 40.2277L54.5665 41.5643ZM50.3209 45.8097L54.5665 41.5643L53.2298 40.2277L48.9845 44.4733L50.3209 45.8097ZM46.8508 43.6763L48.9845 45.8097L50.3209 44.4733L48.1875 42.3396L46.8508 43.6763ZM45.8173 43.6763C46.1027 43.3908 46.5653 43.3908 46.8508 43.6763L48.1875 42.3396C47.1639 41.316 45.5042 41.316 44.4806 42.3396L45.8173 43.6763ZM45.8173 44.7098C45.5318 44.4243 45.5318 43.9617 45.8173 43.6763L44.4806 42.3396C43.457 43.3632 43.457 45.0229 44.4806 46.0465L45.8173 44.7098ZM49.1319 48.0246L45.8173 44.7098L44.4806 46.0465L47.7952 49.3611L49.1319 48.0246ZM50.1482 48.0412C49.8623 48.3098 49.4117 48.3044 49.1319 48.0246L47.7952 49.3611C48.7992 50.3651 50.4142 50.3844 51.4421 49.4194L50.1482 48.0412ZM50.2358 47.962C50.22 47.9779 50.2039 47.9928 50.1876 48.0065L51.4029 49.4544C51.4612 49.4053 51.5179 49.3533 51.5725 49.2987L50.2358 47.962ZM55.6 42.5979L50.2358 47.962L51.5725 49.2987L56.9367 43.9345L55.6 42.5979ZM55.6 41.5643C55.8855 41.8498 55.8855 42.3124 55.6 42.5979L56.9367 43.9345C57.9603 42.9109 57.9603 41.2513 56.9367 40.2277L55.6 41.5643Z" fill="#E4262A"/>
</g>
</g>
<defs>
<clipPath id="clip0_175_288">
<rect width="61.6709" height="56" fill="white"/>
</clipPath>
</defs>
</svg>
