<svg width="53" height="56" viewBox="0 0 53 56" fill="none" xmlns="http://www.w3.org/2000/svg">
<g clip-path="url(#clip0_175_310)">
<path fill-rule="evenodd" clip-rule="evenodd" d="M39.8523 1.8505C39.8388 1.46902 40.1434 1.15234 40.524 1.15234H41.5668C41.9474 1.15234 42.252 1.46902 42.2384 1.8505L42.1183 5.22101C42.1054 5.5837 41.8087 5.87105 41.4469 5.87105H40.6439C40.2821 5.87105 39.9853 5.5837 39.9725 5.22101L39.8523 1.8505ZM40.2577 2.00498C40.252 1.81498 40.4041 1.65789 40.5936 1.65789H41.497C41.6865 1.65789 41.8385 1.81498 41.8328 2.00498L41.7427 5.03842C41.7375 5.22059 41.5886 5.36543 41.4069 5.36543H40.6836C40.5019 5.36543 40.3531 5.22059 40.3478 5.03842L40.2577 2.00498ZM44.7286 2.43136C44.907 2.09417 45.3285 1.97271 45.6581 2.16357L46.5613 2.68677C46.8909 2.87763 46.9968 3.30466 46.7949 3.62824L46.3718 4.30648L45.1544 5.52779L46.367 3.55864C46.4664 3.39693 46.4132 3.18464 46.2492 3.0896L45.4666 2.63634C45.3026 2.54131 45.0926 2.60111 45.0028 2.76849L43.5691 5.4407C43.4829 5.60116 43.5394 5.80124 43.6968 5.89236L44.3234 6.25528C44.3473 6.26911 44.3723 6.27969 44.3976 6.28711L44.0216 6.66433L43.4103 6.31027C43.097 6.12881 42.9833 5.73107 43.1528 5.41049L44.7286 2.43136ZM42.9728 7.71672C42.4013 7.39973 41.7441 7.21929 41.0451 7.21929C38.8419 7.21929 37.0558 9.01126 37.0558 11.2218C37.0558 11.9232 37.2356 12.5825 37.5515 13.1557L37.9417 12.7642C37.7118 12.2995 37.5827 11.7758 37.5827 11.2218C37.5827 9.30323 39.1327 7.74795 41.0451 7.74795C41.5971 7.74795 42.1192 7.87762 42.5825 8.10828L42.9728 7.71672ZM36.5863 14.1241L36.2335 13.5108C36.0525 13.1965 35.656 13.0823 35.3365 13.2524L32.3672 14.8334C32.0312 15.0124 31.9101 15.4353 32.1003 15.7659L32.6217 16.6721C32.8121 17.0027 33.2378 17.109 33.5603 16.9065L34.2363 16.4818L35.4534 15.2607L33.4909 16.477C33.3299 16.5769 33.1181 16.5234 33.0235 16.3588L32.5716 15.5738C32.477 15.4091 32.5365 15.1985 32.7035 15.1084L35.3668 13.67C35.5267 13.5836 35.7263 13.6404 35.817 13.7982L36.1788 14.4268C36.1926 14.4508 36.2031 14.4757 36.2105 14.5012L36.5863 14.1241ZM31.7048 12.394C31.3244 12.4077 31.0088 12.1021 31.0088 11.7204V10.674C31.0088 10.2922 31.3244 9.98668 31.7048 10.0003L35.0641 10.1207C35.4256 10.1336 35.7121 10.4314 35.7121 10.7943V11.6C35.7121 11.9629 35.4256 12.2607 35.0641 12.2737L31.7048 12.394ZM31.8587 11.9874C31.6694 11.993 31.5127 11.8405 31.5127 11.6505V10.7439C31.5127 10.5539 31.6694 10.4014 31.8587 10.407L34.8822 10.4974C35.0639 10.5028 35.2081 10.652 35.2081 10.8343V11.5601C35.2081 11.7424 35.0639 11.8916 34.8822 11.897L31.8587 11.9874ZM35.6222 2.68667C35.2929 2.87754 35.187 3.30456 35.3889 3.62812L37.1725 6.48689C37.3643 6.79452 37.7646 6.89446 38.0779 6.71301L38.7732 6.31017C39.0865 6.12869 39.2005 5.73096 39.0309 5.41037L37.455 2.43126C37.2767 2.09407 36.855 1.9726 36.5256 2.16346L35.6222 2.68667ZM35.9344 3.0896C35.7704 3.18464 35.7171 3.39691 35.8166 3.55862L37.4063 6.14049C37.5019 6.29554 37.7028 6.34638 37.8602 6.25526L38.4868 5.89234C38.6441 5.80122 38.7006 5.60114 38.6145 5.44068L37.1807 2.76846C37.0909 2.60111 36.881 2.54131 36.717 2.63634L35.9344 3.0896ZM32.101 6.60271C31.9106 6.93332 32.0316 7.35627 32.3679 7.53522L35.3372 9.11621C35.6567 9.28636 36.0532 9.17214 36.2339 8.85783L36.6354 8.16011C36.8164 7.8458 36.7167 7.44423 36.4101 7.25167L33.5607 5.46218C33.2382 5.25963 32.8126 5.36592 32.6224 5.6965L32.101 6.60271ZM32.5719 6.79495C32.4772 6.95957 32.5367 7.17016 32.7037 7.26026L35.3671 8.69875C35.5271 8.78512 35.7265 8.72831 35.8173 8.5705L36.179 7.9419C36.2698 7.78408 36.2192 7.58241 36.0646 7.48664L33.4911 5.89167C33.3301 5.79177 33.1186 5.84528 33.0237 6.00989L32.5719 6.79495ZM48.923 10.6314L50.0867 10.2749L51.3904 9.87549C51.6787 9.78713 51.9838 9.95004 52.072 10.2393C52.1599 10.5286 51.9975 10.8348 51.7093 10.9231L50.4053 11.3227L49.2416 11.6791L50.3157 12.2525L51.5629 12.9184C51.8292 13.0605 51.93 13.3922 51.7885 13.6592C51.6468 13.9262 51.3163 14.0275 51.05 13.8854L47.9491 12.23L47.7649 12.1316L47.5653 12.1927L45.6046 12.7935C45.3161 12.8818 45.0111 12.7189 44.9231 12.4296C44.8349 12.1403 44.9973 11.8341 45.2858 11.7458L47.2467 11.145L47.4463 11.0838L47.5444 10.8989L49.1943 7.78802C49.336 7.52097 49.6666 7.41969 49.9328 7.56179C50.199 7.70388 50.2999 8.03555 50.1584 8.3026L49.4945 9.55389L48.923 10.6314ZM50.621 9.58256L51.2432 9.39195C51.7977 9.22206 52.3846 9.53534 52.5539 10.0917C52.7231 10.648 52.411 11.2368 51.8565 11.4067L51.234 11.5974L50.5523 11.8062L51.1814 12.1421L51.7998 12.4721C52.3115 12.7453 52.5056 13.3832 52.2332 13.8967C51.961 14.4102 51.3252 14.605 50.8132 14.3317L47.7125 12.6763L45.7519 13.277C45.1971 13.4469 44.6105 13.1336 44.441 12.5772C44.2717 12.0209 44.5841 11.4322 45.1386 11.2623L47.0995 10.6615L48.7496 7.55052C49.0218 7.03698 49.6576 6.84222 50.1696 7.11547C50.6814 7.38874 50.8755 8.02656 50.603 8.5401L50.2741 9.16018L49.9395 9.79137L50.621 9.58256ZM47.8416 16.6953L48.7019 17.5584L49.6659 18.5257C49.879 18.7396 49.879 19.0864 49.6659 19.3003C49.4527 19.5141 49.107 19.5141 48.8939 19.3003L47.9296 18.3329L47.0694 17.4698V18.6904V20.108C47.0694 20.4105 46.825 20.6557 46.5236 20.6557C46.222 20.6557 45.9777 20.4105 45.9777 20.108V16.5838V16.3744L45.83 16.2263L44.3806 14.772C44.1672 14.5581 44.1672 14.2113 44.3806 13.9974C44.5937 13.7835 44.9392 13.7835 45.1526 13.9974L46.6022 15.4518L46.7497 15.5999H46.9585H50.4712C50.7728 15.5999 51.0172 15.8451 51.0172 16.1476C51.0172 16.4501 50.7728 16.6953 50.4712 16.6953H49.0581H47.8416ZM49.5621 17.7065L50.0221 18.1682C50.4322 18.5795 50.4322 19.2464 50.0221 19.6577C49.6124 20.0691 48.9476 20.0691 48.5376 19.6577L48.0773 19.196L47.5734 18.6904V19.4054V20.108C47.5734 20.6897 47.1034 21.1613 46.5236 21.1613C45.9437 21.1613 45.4737 20.6897 45.4737 20.108V16.5838L44.0241 15.1295C43.6141 14.7182 43.6141 14.0512 44.0241 13.6399C44.4341 13.2286 45.0988 13.2286 45.5088 13.6399L46.9585 15.0943H50.4712C51.051 15.0943 51.5211 15.5659 51.5211 16.1476C51.5211 16.7293 51.051 17.2009 50.4712 17.2009H49.7709H49.0581L49.5621 17.7065ZM41.9722 20.2969L42.2878 19.1182L42.8954 20.1757L43.601 21.4041C43.7517 21.6662 44.0854 21.7562 44.3466 21.6051C44.6077 21.4541 44.6976 21.1192 44.5469 20.8571L42.7929 17.8036L42.6886 17.6222L42.7428 17.4199L43.2748 15.4338C43.3531 15.1416 43.1804 14.8412 42.8894 14.7626C42.5981 14.6842 42.2986 14.8573 42.2205 15.1494L41.6883 17.136L41.6341 17.3382L41.4533 17.4428L38.4103 19.2025C38.1491 19.3535 38.0593 19.6884 38.2098 19.9505C38.3605 20.2126 38.6942 20.3026 38.9554 20.1515L40.1794 19.4438L41.2333 18.8343L40.9177 20.013L40.5637 21.334C40.4856 21.6261 40.6581 21.9265 40.9494 22.005C41.2404 22.0836 41.5399 21.9104 41.6182 21.6182L41.9722 20.2969ZM37.7734 20.2029C37.4837 19.6989 37.6562 19.0549 38.1586 18.7644L41.2016 17.0048L41.7338 15.0182C41.8842 14.4564 42.4601 14.1234 43.0201 14.2744C43.5801 14.4254 43.912 15.0032 43.7615 15.5649L43.2293 17.5511L44.9835 20.6046C45.2732 21.1086 45.1007 21.7526 44.5983 22.0431C44.096 22.3336 43.454 22.1605 43.1643 21.6566L42.8147 21.0476L42.4587 20.4282L42.2738 21.1187L42.1047 21.7495C41.9543 22.3112 41.3784 22.6443 40.8184 22.4933C40.2587 22.3423 39.9268 21.7645 40.0772 21.2027L40.246 20.5723L40.4309 19.8818L39.8135 20.2389L39.2071 20.5896C38.7048 20.88 38.0628 20.7069 37.7734 20.2029ZM49.277 5.12558L34.6506 19.8002C34.4703 19.9812 34.1777 19.9812 33.9974 19.8002C33.8168 19.6192 33.8168 19.3258 33.9974 19.1448L48.6238 4.47017C48.8041 4.28917 49.0967 4.28917 49.277 4.47017C49.4573 4.65115 49.4573 4.94458 49.277 5.12558ZM48.2675 4.11267C48.6447 3.73424 49.2561 3.73424 49.6333 4.11267C50.0104 4.4911 50.0104 5.10465 49.6333 5.48308L35.0069 20.1577C34.6297 20.5361 34.0183 20.5361 33.6411 20.1577C33.2637 19.7792 33.2637 19.1657 33.6411 18.7873L48.2675 4.11267Z" fill="#E4262A"/>
<path fill-rule="evenodd" clip-rule="evenodd" d="M48.3196 22.051L51.8691 25.6122C53.6056 27.3544 52.3759 30.3333 49.9202 30.3333H49.54H47.4728V32.4073V53.1476C47.4728 54.6751 46.2391 55.9131 44.7166 55.9131H38.3593H36.292V53.839V33.1851C36.292 31.6579 35.0579 30.4197 33.5357 30.4197H18.8351C17.3129 30.4197 16.0788 31.6579 16.0788 33.1851V53.839V55.9131H14.0115H7.73544C6.21324 55.9131 4.97909 54.6751 4.97909 53.1476V32.4073V30.3333H2.91182H2.76187C0.306229 30.3333 -0.923563 27.3544 0.812846 25.6122L24.8768 1.46901C24.9014 1.49326 24.9264 1.51685 24.9522 1.53979L24.8821 1.4696L27.6883 1.57327C27.5519 1.69134 27.4033 1.78854 27.2473 1.86486C27.3291 1.82558 27.4083 1.78106 27.4843 1.73153C27.5544 1.68398 27.6226 1.63129 27.689 1.57329C27.7264 1.54062 27.7632 1.50627 27.7992 1.47022L27.6963 1.57356C27.7345 1.54101 27.7717 1.507 27.8077 1.47157L31.5408 5.21689C31.1349 5.80459 30.7796 6.4301 30.4812 7.08708L26.3411 2.93326L2.27462 27.0788C1.84052 27.5144 2.14797 28.2592 2.76187 28.2592H4.97909H7.04635V30.3333V53.1476C7.04635 53.5295 7.3549 53.839 7.73544 53.839H14.0115V33.1851C14.0115 30.5123 16.1713 28.3456 18.8351 28.3456H33.5357C36.1995 28.3456 38.3593 30.5123 38.3593 33.1851V53.839H44.7166C45.097 53.839 45.4055 53.5297 45.4055 53.1476V30.3333V28.2592H47.4728H49.9202C50.5341 28.2592 50.8415 27.5144 50.4074 27.0788L46.4554 23.1139C47.1103 22.8146 47.7337 22.4581 48.3196 22.051ZM27.6883 1.57327L24.8793 1.46668L26.3354 0.00575693L26.3404 0.000706453L26.3407 0.00049421V0.00034225L26.3409 0.000236758V0.000178499V0.000172054V8.75684e-05C26.3409 9.70933e-06 26.3409 -2.92826e-05 26.3409 2.57721e-05C26.3409 5.99012e-05 26.3411 5.99012e-05 26.3411 2.57721e-05C26.3411 -2.92826e-05 26.3411 9.70933e-06 26.3411 8.75684e-05V0.000172054V0.000173727V0.000236758L26.3414 0.00034225V0.00049421L26.3416 0.000706453L27.8027 1.46668L27.8025 1.46693L27.8022 1.46736L27.7999 1.46961C27.7636 1.50578 27.7264 1.54034 27.6883 1.57327ZM26.0554 2.05672C26.2063 2.07705 26.3581 2.08026 26.5081 2.06739C26.2499 2.08826 25.9886 2.06065 25.7386 1.98456C25.842 2.01666 25.9481 2.04087 26.0554 2.05672ZM25.1286 1.68128C25.1623 1.70552 25.1968 1.72873 25.2319 1.75091C25.1267 1.68375 25.0264 1.60613 24.9322 1.51804C24.9956 1.57744 25.0613 1.63181 25.1286 1.68128ZM13.3501 17.1696C13.7272 16.7911 14.3388 16.7911 14.7159 17.1696C15.0931 17.548 15.0931 18.1615 14.7159 18.54L8.48044 24.796C8.10326 25.1744 7.49171 25.1744 7.11453 24.796C6.73734 24.4176 6.73734 23.8041 7.11453 23.4257L13.3501 17.1696ZM18.0461 13.9365C17.6689 13.5581 17.0574 13.5581 16.6802 13.9365L15.3835 15.2375C15.0063 15.6159 15.0063 16.2295 15.3835 16.6079C15.7607 16.9863 16.3722 16.9863 16.7494 16.6079L18.0461 15.3069C18.4233 14.9285 18.4233 14.3149 18.0461 13.9365Z" fill="#303030"/>
</g>
<defs>
<clipPath id="clip0_175_310">
<rect width="52.8302" height="56" fill="white"/>
</clipPath>
</defs>
</svg>
