<svg width="56" height="52" viewBox="0 0 56 52" fill="none" xmlns="http://www.w3.org/2000/svg">
<g clip-path="url(#clip0_175_297)">
<mask id="mask0_175_297" style="mask-type:alpha" maskUnits="userSpaceOnUse" x="0" y="0" width="56" height="52">
<path fill-rule="evenodd" clip-rule="evenodd" d="M10.4335 0C7.37595 0 4.89734 2.47861 4.89734 5.53612V10.6464V21.4022C1.97385 22.2989 0.091537 23.6316 0.0059581 25.1255H0.00291113V25.2319V46.8465C0.000973504 46.8812 0 46.9159 0 46.9506C0 46.9853 0.000973504 47.02 0.00291113 47.0547V47.057H0.00304698C0.158551 49.7714 6.24649 51.9544 13.7338 51.9544C21.0244 51.9544 26.9882 49.8847 27.4402 47.27H50.4639C53.5213 47.27 56 44.7913 56 41.7338V16.1825C56 13.125 53.5213 10.6464 50.4639 10.6464H50.2509V2.55513C50.2509 1.14397 49.1069 0 47.6958 0H10.4335Z" fill="white"/>
</mask>
<g mask="url(#mask0_175_297)">
<path d="M4.89767 21.4021L5.45959 23.2341L6.81402 22.8187V21.4021H4.89767ZM0.00629234 25.1253V27.0417H1.816L1.91951 25.235L0.00629234 25.1253ZM0.00324535 25.1253V23.209H-1.9131V25.1253H0.00324535ZM0.00324535 46.8463L1.9166 46.9534L1.91959 46.9V46.8463H0.00324535ZM0.00324535 47.0545H1.91959V47.0009L1.9166 46.9474L0.00324535 47.0545ZM0.00324535 47.0569H-1.9131V48.9732H0.00324535V47.0569ZM0.00338113 47.0569L1.91659 46.9472L1.81309 45.1405H0.00338113V47.0569ZM27.4405 47.2698V45.3535H25.827L25.5521 46.9434L27.4405 47.2698ZM50.2513 10.6462H48.3349V12.5626H50.2513V10.6462ZM6.81402 5.53597C6.81402 3.53683 8.43466 1.9162 10.4338 1.9162V-1.9165C6.3179 -1.9165 2.98132 1.42008 2.98132 5.53597H6.81402ZM6.81402 10.6462V5.53597H2.98132V10.6462H6.81402ZM2.98132 10.6462V21.4021H6.81402V10.6462H2.98132ZM4.33576 19.5699C2.75441 20.0549 1.32722 20.6936 0.241456 21.5041C-0.815943 22.2934 -1.81768 23.4581 -1.90692 25.0157L1.91951 25.235C1.91585 25.2989 1.89805 25.0502 2.53407 24.5753C3.14174 24.1218 4.11746 23.6457 5.45959 23.2341L4.33576 19.5699ZM0.00629234 23.209H0.00324535V27.0417H0.00629234V23.209ZM-1.9131 25.1253V25.2318H1.91959V25.1253H-1.9131ZM-1.9131 25.2318V46.8463H1.91959V25.2318H-1.9131ZM-1.91011 46.7392C-1.91404 46.8095 -1.91602 46.8799 -1.91602 46.9504H1.91668C1.91668 46.9515 1.91666 46.9526 1.9166 46.9534L-1.91011 46.7392ZM-1.91602 46.9504C-1.91602 47.0209 -1.91404 47.0914 -1.91011 47.1616L1.9166 46.9474C1.91666 46.9483 1.91668 46.9494 1.91668 46.9504H-1.91602ZM-1.9131 47.0545V47.0569H1.91959V47.0545H-1.9131ZM0.00324535 48.9732H0.00338113V45.1405H0.00324535V48.9732ZM-1.90983 47.1665C-1.82868 48.5829 -0.988483 49.6765 -0.0591834 50.4446C0.882166 51.2224 2.11537 51.8424 3.47461 52.3281C6.20656 53.3042 9.82789 53.8706 13.7342 53.8706V50.0379C10.1531 50.0379 6.98679 49.5128 4.76406 48.7188C3.64596 48.3193 2.86006 47.8847 2.38221 47.49C1.8923 47.0852 1.9132 46.888 1.91659 46.9472L-1.90983 47.1665ZM13.7342 53.8706C17.5397 53.8706 21.0715 53.3329 23.7741 52.405C25.1205 51.9427 26.3414 51.3561 27.2955 50.6285C28.2294 49.9165 29.1005 48.9164 29.3288 47.5962L25.5521 46.9434C25.5544 46.9306 25.5106 47.1697 24.9712 47.5811C24.4521 47.9769 23.6417 48.3981 22.5294 48.7801C20.3145 49.5407 17.2192 50.0379 13.7342 50.0379V53.8706ZM27.4405 49.1862H50.4642V45.3535H27.4405V49.1862ZM50.4642 49.1862C54.5801 49.1862 57.9167 45.8496 57.9167 41.7337H54.084C54.084 43.7329 52.4634 45.3535 50.4642 45.3535V49.1862ZM57.9167 41.7337V16.1824H54.084V41.7337H57.9167ZM57.9167 16.1824C57.9167 12.0665 54.5801 8.72989 50.4642 8.72989V12.5626C52.4634 12.5626 54.084 14.1832 54.084 16.1824H57.9167ZM50.4642 8.72989H50.2513V12.5626H50.4642V8.72989ZM48.3349 2.55498V10.6462H52.1676V2.55498H48.3349ZM47.6962 1.9162C48.049 1.9162 48.3349 2.20218 48.3349 2.55498H52.1676C52.1676 0.0854485 50.1657 -1.9165 47.6962 -1.9165V1.9162ZM10.4338 1.9162H47.6962V-1.9165H10.4338V1.9162Z" fill="#303030"/>
<path d="M49.6129 26.2969H55.0426V33.3235H49.6129C47.6725 33.3235 46.0996 31.7506 46.0996 29.8102C46.0996 27.8698 47.6725 26.2969 49.6129 26.2969Z" stroke="#303030" stroke-width="1.91635"/>
<path d="M49.2922 30.8744C49.8213 30.8744 50.2503 30.4454 50.2503 29.9162C50.2503 29.387 49.8213 28.958 49.2922 28.958C48.763 28.958 48.334 29.387 48.334 29.9162C48.334 30.4454 48.763 30.8744 49.2922 30.8744Z" fill="#303030"/>
<path d="M10.4334 0.958008H47.6958C48.5777 0.958008 49.2927 1.67299 49.2927 2.55497V11.6044H11.1787C8.23875 11.6044 5.85547 9.22112 5.85547 6.2812V5.53595C5.85547 3.00763 7.90509 0.958008 10.4334 0.958008Z" stroke="#303030" stroke-width="1.91635"/>
<path d="M48.2282 5.32324H12.0304C11.5013 5.32324 11.0723 5.75223 11.0723 6.28142C11.0723 6.8106 11.5013 7.23959 12.0304 7.23959H48.2282C48.7573 7.23959 49.1863 6.8106 49.1863 6.28142C49.1863 5.75223 48.7573 5.32324 48.2282 5.32324Z" fill="#303030"/>
<path d="M50.7833 14.6919H40.1369C39.6077 14.6919 39.1787 15.1209 39.1787 15.6501C39.1787 16.1793 39.6077 16.6082 40.1369 16.6082H50.7833C51.3125 16.6082 51.7414 16.1793 51.7414 15.6501C51.7414 15.1209 51.3125 14.6919 50.7833 14.6919Z" fill="#303030"/>
<path d="M36.5165 14.6919H32.4709C31.9417 14.6919 31.5127 15.1209 31.5127 15.6501C31.5127 16.1793 31.9417 16.6082 32.4709 16.6082H36.5165C37.0457 16.6082 37.4747 16.1793 37.4747 15.6501C37.4747 15.1209 37.0457 14.6919 36.5165 14.6919Z" fill="#303030"/>
<path fill-rule="evenodd" clip-rule="evenodd" d="M25.1376 24.7361C25.4574 25.0114 25.5328 25.1797 25.5488 25.2318C25.5328 25.284 25.4574 25.4522 25.1376 25.7275C24.6815 26.1206 23.9097 26.5614 22.789 26.9695C20.5639 27.7801 17.3626 28.3193 13.7338 28.3193C10.1051 28.3193 6.90382 27.7801 4.67858 26.9695C3.55811 26.5614 2.78612 26.1206 2.32998 25.7275C2.05981 25.4948 1.96416 25.3387 1.93132 25.2644V25.1993C1.96416 25.1249 2.05981 24.9689 2.32998 24.7361C2.78612 24.3431 3.55811 23.9023 4.67858 23.4941C6.90382 22.6835 10.1051 22.1444 13.7338 22.1444C17.3626 22.1444 20.5639 22.6835 22.789 23.4941C23.9097 23.9023 24.6815 24.3431 25.1376 24.7361ZM0 25.1254H0.00304697C0.158551 22.411 6.24649 20.228 13.7338 20.228C21.2212 20.228 27.309 22.411 27.4647 25.1254H27.4826V47.0569H27.4617C27.3063 49.7713 21.2182 51.9543 13.7309 51.9543C6.24355 51.9543 0.155617 49.7713 0.000113116 47.0569H0V25.2318V25.1254ZM25.5513 47.0569V42.2601C23.1587 43.7297 18.7606 44.7147 13.7309 44.7147C8.71581 44.7147 4.32854 43.7353 1.93132 42.2729V47.0569H1.96833C2.02228 47.1432 2.12665 47.2737 2.32704 47.4462C2.78318 47.8392 3.55517 48.28 4.67564 48.6882C6.90088 49.4988 10.1021 50.0379 13.7309 50.0379C17.3597 50.0379 20.5609 49.4988 22.7862 48.6882C23.9067 48.28 24.6785 47.8392 25.1348 47.4462C25.3352 47.2737 25.4395 47.1432 25.4934 47.0569H25.5513ZM25.5513 39.8174V35.0205C23.1587 36.4902 18.7606 37.4752 13.7309 37.4752C8.71581 37.4752 4.32854 36.4957 1.93132 35.0333V39.8174H1.96833C2.02228 39.9036 2.12665 40.0341 2.32704 40.2066C2.78318 40.5997 3.55517 41.0404 4.67564 41.4486C6.90088 42.2592 10.1021 42.7984 13.7309 42.7984C17.3597 42.7984 20.5609 42.2592 22.7862 41.4486C23.9067 41.0404 24.6785 40.5997 25.1348 40.2066C25.3352 40.0341 25.4395 39.9036 25.4934 39.8174H25.5513ZM25.5513 32.5778V27.7829C23.158 29.2513 18.7614 30.2356 13.7338 30.2356C8.71669 30.2356 4.32788 29.2555 1.93132 27.7921V32.5778H1.96833C2.02228 32.6641 2.12665 32.7946 2.32704 32.9671C2.78318 33.3601 3.55517 33.8009 4.67564 34.2091C6.90088 35.0197 10.1021 35.5588 13.7309 35.5588C17.3597 35.5588 20.5609 35.0197 22.7862 34.2091C23.9067 33.8009 24.6785 33.3601 25.1348 32.9671C25.3352 32.7946 25.4395 32.6641 25.4934 32.5778H25.5513Z" fill="#E4262A"/>
</g>
</g>
<defs>
<clipPath id="clip0_175_297">
<rect width="56" height="51.9544" fill="white"/>
</clipPath>
</defs>
</svg>
