<svg width="15" height="15" viewBox="0 0 15 15" fill="none" xmlns="http://www.w3.org/2000/svg">
<path d="M9.53007 10.0688L10.5801 9.01877C10.7215 8.8791 10.9004 8.78349 11.0951 8.74355C11.2898 8.70361 11.492 8.72106 11.6769 8.79377L12.9566 9.3047C13.1436 9.38058 13.3039 9.5101 13.4173 9.67694C13.5308 9.84377 13.5923 10.0405 13.5941 10.2422V12.586C13.593 12.7232 13.5642 12.8588 13.5093 12.9846C13.4544 13.1104 13.3747 13.2238 13.2748 13.3179C13.175 13.4121 13.0571 13.4851 12.9283 13.5325C12.7995 13.5799 12.6625 13.6007 12.5254 13.5938C3.5582 13.036 1.74882 5.44221 1.40663 2.53596C1.39075 2.39324 1.40526 2.24878 1.44922 2.11207C1.49317 1.97536 1.56558 1.84952 1.66166 1.7428C1.75775 1.63609 1.87534 1.55093 2.00671 1.49292C2.13807 1.43492 2.28022 1.40539 2.42382 1.40627H4.68788C4.88992 1.40687 5.08716 1.46789 5.25422 1.5815C5.42129 1.69511 5.55056 1.8561 5.62538 2.04377L6.13632 3.32346C6.21144 3.50771 6.2306 3.71001 6.19142 3.90509C6.15224 4.10017 6.05645 4.27938 5.91601 4.42033L4.86601 5.47033C4.86601 5.47033 5.4707 9.56252 9.53007 10.0688Z" fill="white"/>
</svg>
