<svg width="18" height="18" viewBox="0 0 18 18" fill="none" xmlns="http://www.w3.org/2000/svg">
<path d="M16.2222 12.2681L13.6822 11.9781C13.0722 11.9081 12.4722 12.1181 12.0422 12.5481L10.2022 14.3881C7.37223 12.9481 5.05223 10.6381 3.61223 7.79807L5.46223 5.94807C5.89223 5.51807 6.10223 4.91807 6.03223 4.30807L5.74223 1.78807C5.62223 0.778066 4.77223 0.0180664 3.75223 0.0180664H2.02223C0.892228 0.0180664 -0.0477718 0.958066 0.0222282 2.08807C0.552228 10.6281 7.38223 17.4481 15.9122 17.9781C17.0422 18.0481 17.9822 17.1081 17.9822 15.9781V14.2481C17.9922 13.2381 17.2322 12.3881 16.2222 12.2681Z" fill="#E4262A"/>
</svg>
